<mxfile host="Electron" agent="Mozilla/5.0 (Macintosh; Intel Mac OS X 10_15_7) AppleWebKit/537.36 (KHTML, like Gecko) draw.io/26.2.2 Chrome/134.0.6998.178 Electron/35.1.2 Safari/537.36" version="26.2.2">
  <diagram name="Page-1" id="dq8juwHjYBTWb1SoAbBf">
    <mxGraphModel dx="1725" dy="1782" grid="1" gridSize="10" guides="1" tooltips="1" connect="1" arrows="1" fold="1" page="1" pageScale="1" pageWidth="1920" pageHeight="1200" math="0" shadow="0">
      <root>
        <mxCell id="0" />
        <mxCell id="1" parent="0" />
        <mxCell id="D0AqdsrFLwhoFKeQuo0Y-10" value="Tablet can log in to the hotspot if the MAC Address is known" style="rounded=1;whiteSpace=wrap;html=1;" parent="1" vertex="1">
          <mxGeometry x="1380" y="370" width="120" height="60" as="geometry" />
        </mxCell>
        <mxCell id="D0AqdsrFLwhoFKeQuo0Y-11" value="It can also add a temporary MAC Address to the train if it connects over LAN" style="rounded=1;whiteSpace=wrap;html=1;" parent="1" vertex="1">
          <mxGeometry x="1380" y="440" width="120" height="60" as="geometry" />
        </mxCell>
        <mxCell id="D0AqdsrFLwhoFKeQuo0Y-12" value="If the train has WIFI, the Tablet can Add its own MAC address over the trains connection" style="rounded=1;whiteSpace=wrap;html=1;" parent="1" vertex="1">
          <mxGeometry x="1380" y="510" width="120" height="70" as="geometry" />
        </mxCell>
        <mxCell id="D0AqdsrFLwhoFKeQuo0Y-13" value="The hotspot is on 192.168.1.1" style="rounded=1;whiteSpace=wrap;html=1;" parent="1" vertex="1">
          <mxGeometry x="1620" y="360" width="120" height="70" as="geometry" />
        </mxCell>
        <mxCell id="D0AqdsrFLwhoFKeQuo0Y-14" value="The switch is on 192.168.0.1" style="rounded=1;whiteSpace=wrap;html=1;" parent="1" vertex="1">
          <mxGeometry x="1620" y="440" width="120" height="70" as="geometry" />
        </mxCell>
        <mxCell id="D0AqdsrFLwhoFKeQuo0Y-15" value="Networks are seperated and can only interact through the Bridge" style="rounded=1;whiteSpace=wrap;html=1;" parent="1" vertex="1">
          <mxGeometry x="1750" y="360" width="120" height="70" as="geometry" />
        </mxCell>
        <mxCell id="D0AqdsrFLwhoFKeQuo0Y-24" value="When in depot, the train uses the raspberry PI antenna to connect to the depot. All devices connected to the Bridge still can&#39;t access the internet by themselfes" style="rounded=1;whiteSpace=wrap;html=1;" parent="1" vertex="1">
          <mxGeometry x="1750" y="440" width="170" height="90" as="geometry" />
        </mxCell>
        <mxCell id="D0AqdsrFLwhoFKeQuo0Y-25" value="Tablet shows a notice, when the train isnt online, and it cant register the tablets MAC, that the tablet needs to connect over lan again next time" style="rounded=1;whiteSpace=wrap;html=1;" parent="1" vertex="1">
          <mxGeometry x="1750" y="540" width="170" height="90" as="geometry" />
        </mxCell>
        <mxCell id="D0AqdsrFLwhoFKeQuo0Y-29" value="When in depot, a tablet prioritizes the depots network instead of a train network, unless a handshake was made to leave the depot, or connection to depo is left" style="rounded=1;whiteSpace=wrap;html=1;" parent="1" vertex="1">
          <mxGeometry x="1350" y="600" width="210" height="70" as="geometry" />
        </mxCell>
        <mxCell id="RrzdnQDn-9nG9QoV303n-27" value="Rangierbegleiter müssen im zug einstellen, welche seiten tatsächlich genutzt werden müssen, wenn zug teile getrennt/dran getan werden, um mehrere meshes zu unterstützen" style="rounded=0;whiteSpace=wrap;html=1;" parent="1" vertex="1">
          <mxGeometry x="1420" y="790" width="250" height="70" as="geometry" />
        </mxCell>
        <mxCell id="RrzdnQDn-9nG9QoV303n-28" value="Rangier begleiter können &quot;2 züge zu einem machen&quot;&lt;div&gt;Und den zügen sagen dass sie sich mit einander verbinden sollen&lt;/div&gt;" style="rounded=0;whiteSpace=wrap;html=1;" parent="1" vertex="1">
          <mxGeometry x="1420" y="870" width="250" height="70" as="geometry" />
        </mxCell>
        <mxCell id="RrzdnQDn-9nG9QoV303n-29" value="Die seiten verbinden sich dann untereinander über wlan an den enden (wlan0)&lt;br&gt;Beide seiten müssen in den &quot;kupplungs modus&quot; getan werden vom rangier begleiter" style="rounded=0;whiteSpace=wrap;html=1;" parent="1" vertex="1">
          <mxGeometry x="1680" y="870" width="250" height="70" as="geometry" />
        </mxCell>
        <mxCell id="fbIB9J7qFFFKaNbtSgQg-2" value="Danach suchen die seiten nach sich (mby über bluetooth?)" style="rounded=0;whiteSpace=wrap;html=1;" parent="1" vertex="1">
          <mxGeometry x="1940" y="870" width="250" height="70" as="geometry" />
        </mxCell>
        <mxCell id="fbIB9J7qFFFKaNbtSgQg-3" value="Dadurch dass die beiden seiten die sich suchen so nah an einander sind, deaktivieren sie ihre eigene steuerung danach selbst" style="rounded=0;whiteSpace=wrap;html=1;" parent="1" vertex="1">
          <mxGeometry x="1940" y="950" width="250" height="70" as="geometry" />
        </mxCell>
        <mxCell id="RWCcXeoH5vesJ5peBKe--1" value="[/ebula] EbulaController" style="swimlane;whiteSpace=wrap;html=1;" vertex="1" parent="1">
          <mxGeometry x="50" y="100" width="1070" height="220" as="geometry" />
        </mxCell>
        <mxCell id="RWCcXeoH5vesJ5peBKe--8" value="GET" style="rounded=1;whiteSpace=wrap;html=1;fillColor=#d5e8d4;strokeColor=#82b366;" vertex="1" parent="RWCcXeoH5vesJ5peBKe--1">
          <mxGeometry x="30" y="60" width="40" height="20" as="geometry" />
        </mxCell>
        <mxCell id="RWCcXeoH5vesJ5peBKe--10" value="/currentTable" style="rounded=1;whiteSpace=wrap;html=1;" vertex="1" parent="RWCcXeoH5vesJ5peBKe--1">
          <mxGeometry x="70" y="60" width="120" height="20" as="geometry" />
        </mxCell>
        <mxCell id="RWCcXeoH5vesJ5peBKe--11" value="&lt;font style=&quot;font-size: 10px;&quot;&gt;Returns the current timetable.&lt;/font&gt;" style="rounded=1;whiteSpace=wrap;html=1;" vertex="1" parent="RWCcXeoH5vesJ5peBKe--1">
          <mxGeometry x="30" y="80" width="160" height="30" as="geometry" />
        </mxCell>
        <mxCell id="RWCcXeoH5vesJ5peBKe--15" value="POST" style="rounded=1;whiteSpace=wrap;html=1;fillColor=#dae8fc;strokeColor=#6c8ebf;" vertex="1" parent="RWCcXeoH5vesJ5peBKe--1">
          <mxGeometry x="200" y="60" width="40" height="20" as="geometry" />
        </mxCell>
        <mxCell id="RWCcXeoH5vesJ5peBKe--16" value="/edit" style="rounded=1;whiteSpace=wrap;html=1;" vertex="1" parent="RWCcXeoH5vesJ5peBKe--1">
          <mxGeometry x="240" y="60" width="120" height="20" as="geometry" />
        </mxCell>
        <mxCell id="RWCcXeoH5vesJ5peBKe--17" value="&lt;div style=&quot;line-height: 50%;&quot;&gt;&lt;p&gt;&lt;font style=&quot;font-size: 7px;&quot;&gt;&lt;font style=&quot;&quot;&gt;Creates/overwrites/edits the&amp;nbsp;&lt;/font&gt;&lt;span style=&quot;background-color: transparent; color: light-dark(rgb(0, 0, 0), rgb(255, 255, 255));&quot;&gt;current timetable.&lt;/span&gt;&lt;/font&gt;&lt;/p&gt;&lt;/div&gt;" style="rounded=1;whiteSpace=wrap;html=1;" vertex="1" parent="RWCcXeoH5vesJ5peBKe--1">
          <mxGeometry x="200" y="80" width="160" height="30" as="geometry" />
        </mxCell>
        <mxCell id="RWCcXeoH5vesJ5peBKe--18" value="GET" style="rounded=1;whiteSpace=wrap;html=1;fillColor=#d5e8d4;strokeColor=#82b366;" vertex="1" parent="RWCcXeoH5vesJ5peBKe--1">
          <mxGeometry x="370" y="60" width="40" height="20" as="geometry" />
        </mxCell>
        <mxCell id="RWCcXeoH5vesJ5peBKe--19" value="/currentConditions" style="rounded=1;whiteSpace=wrap;html=1;" vertex="1" parent="RWCcXeoH5vesJ5peBKe--1">
          <mxGeometry x="410" y="60" width="120" height="20" as="geometry" />
        </mxCell>
        <mxCell id="RWCcXeoH5vesJ5peBKe--20" value="&lt;font style=&quot;line-height: 70%; font-size: 7px;&quot;&gt;Returns the current conditions based on the current location. (E.g. Speed limit, next stop, etc.)&lt;/font&gt;" style="rounded=1;whiteSpace=wrap;html=1;" vertex="1" parent="RWCcXeoH5vesJ5peBKe--1">
          <mxGeometry x="370" y="80" width="160" height="30" as="geometry" />
        </mxCell>
        <mxCell id="RWCcXeoH5vesJ5peBKe--21" value="POST" style="rounded=1;whiteSpace=wrap;html=1;fillColor=#dae8fc;strokeColor=#6c8ebf;" vertex="1" parent="RWCcXeoH5vesJ5peBKe--1">
          <mxGeometry x="710" y="60" width="40" height="20" as="geometry" />
        </mxCell>
        <mxCell id="RWCcXeoH5vesJ5peBKe--22" value="&lt;font style=&quot;font-size: 11px;&quot;&gt;/disableAutoDetection&lt;/font&gt;" style="rounded=1;whiteSpace=wrap;html=1;" vertex="1" parent="RWCcXeoH5vesJ5peBKe--1">
          <mxGeometry x="750" y="60" width="120" height="20" as="geometry" />
        </mxCell>
        <mxCell id="RWCcXeoH5vesJ5peBKe--23" value="&lt;div style=&quot;line-height: 50%;&quot;&gt;&lt;p&gt;&lt;span style=&quot;font-size: 7px;&quot;&gt;Disables the auto detection of EbuLa changes for this session.&lt;/span&gt;&lt;/p&gt;&lt;/div&gt;" style="rounded=1;whiteSpace=wrap;html=1;" vertex="1" parent="RWCcXeoH5vesJ5peBKe--1">
          <mxGeometry x="710" y="80" width="160" height="30" as="geometry" />
        </mxCell>
        <mxCell id="RWCcXeoH5vesJ5peBKe--26" value="&lt;div style=&quot;line-height: 50%;&quot;&gt;&lt;p&gt;&lt;span style=&quot;font-size: 7px;&quot;&gt;Disables the localisation using the location marker on the EbuLa device for this session.&lt;/span&gt;&lt;/p&gt;&lt;/div&gt;" style="rounded=1;whiteSpace=wrap;html=1;" vertex="1" parent="RWCcXeoH5vesJ5peBKe--1">
          <mxGeometry x="880" y="80" width="160" height="30" as="geometry" />
        </mxCell>
        <mxCell id="RWCcXeoH5vesJ5peBKe--25" value="&lt;font style=&quot;font-size: 11px;&quot;&gt;/disableLocalisation&lt;/font&gt;" style="rounded=1;whiteSpace=wrap;html=1;" vertex="1" parent="RWCcXeoH5vesJ5peBKe--1">
          <mxGeometry x="920" y="60" width="120" height="20" as="geometry" />
        </mxCell>
        <mxCell id="RWCcXeoH5vesJ5peBKe--24" value="POST" style="rounded=1;whiteSpace=wrap;html=1;fillColor=#dae8fc;strokeColor=#6c8ebf;" vertex="1" parent="RWCcXeoH5vesJ5peBKe--1">
          <mxGeometry x="880" y="60" width="40" height="20" as="geometry" />
        </mxCell>
        <mxCell id="RWCcXeoH5vesJ5peBKe--27" value="POST" style="rounded=1;whiteSpace=wrap;html=1;fillColor=#dae8fc;strokeColor=#6c8ebf;" vertex="1" parent="RWCcXeoH5vesJ5peBKe--1">
          <mxGeometry x="30" y="140" width="40" height="20" as="geometry" />
        </mxCell>
        <mxCell id="RWCcXeoH5vesJ5peBKe--28" value="&lt;font style=&quot;font-size: 11px;&quot;&gt;/turnOffDetection&lt;/font&gt;" style="rounded=1;whiteSpace=wrap;html=1;" vertex="1" parent="RWCcXeoH5vesJ5peBKe--1">
          <mxGeometry x="70" y="140" width="120" height="20" as="geometry" />
        </mxCell>
        <mxCell id="RWCcXeoH5vesJ5peBKe--29" value="&lt;div style=&quot;line-height: 50%;&quot;&gt;&lt;p&gt;&lt;span style=&quot;font-size: 7px;&quot;&gt;Permanently turns off the auto detection of a timetable from the EbuLa.&lt;/span&gt;&lt;/p&gt;&lt;/div&gt;" style="rounded=1;whiteSpace=wrap;html=1;" vertex="1" parent="RWCcXeoH5vesJ5peBKe--1">
          <mxGeometry x="30" y="160" width="160" height="30" as="geometry" />
        </mxCell>
        <mxCell id="RWCcXeoH5vesJ5peBKe--30" value="POST" style="rounded=1;whiteSpace=wrap;html=1;fillColor=#dae8fc;strokeColor=#6c8ebf;" vertex="1" parent="RWCcXeoH5vesJ5peBKe--1">
          <mxGeometry x="200" y="140" width="40" height="20" as="geometry" />
        </mxCell>
        <mxCell id="RWCcXeoH5vesJ5peBKe--31" value="&lt;font style=&quot;font-size: 11px;&quot;&gt;/turnOffLocalisation&lt;/font&gt;" style="rounded=1;whiteSpace=wrap;html=1;" vertex="1" parent="RWCcXeoH5vesJ5peBKe--1">
          <mxGeometry x="240" y="140" width="120" height="20" as="geometry" />
        </mxCell>
        <mxCell id="RWCcXeoH5vesJ5peBKe--32" value="&lt;div style=&quot;line-height: 50%;&quot;&gt;&lt;p&gt;&lt;span style=&quot;font-size: 7px;&quot;&gt;Permanently turns off the localisation using the location marker on the EbuLa device.&lt;/span&gt;&lt;/p&gt;&lt;/div&gt;" style="rounded=1;whiteSpace=wrap;html=1;" vertex="1" parent="RWCcXeoH5vesJ5peBKe--1">
          <mxGeometry x="200" y="160" width="160" height="30" as="geometry" />
        </mxCell>
        <mxCell id="RWCcXeoH5vesJ5peBKe--33" value="POST" style="rounded=1;whiteSpace=wrap;html=1;fillColor=#dae8fc;strokeColor=#6c8ebf;" vertex="1" parent="RWCcXeoH5vesJ5peBKe--1">
          <mxGeometry x="370" y="140" width="40" height="20" as="geometry" />
        </mxCell>
        <mxCell id="RWCcXeoH5vesJ5peBKe--34" value="&lt;font style=&quot;font-size: 11px;&quot;&gt;/enableAutoDetection&lt;/font&gt;" style="rounded=1;whiteSpace=wrap;html=1;" vertex="1" parent="RWCcXeoH5vesJ5peBKe--1">
          <mxGeometry x="410" y="140" width="120" height="20" as="geometry" />
        </mxCell>
        <mxCell id="RWCcXeoH5vesJ5peBKe--35" value="&lt;div style=&quot;line-height: 50%;&quot;&gt;&lt;p&gt;&lt;span style=&quot;font-size: 7px;&quot;&gt;Re-enables the auto detection of the timetable using the EbuLa. This invokes a full re scan of the current timetable.&lt;/span&gt;&lt;/p&gt;&lt;/div&gt;" style="rounded=1;whiteSpace=wrap;html=1;" vertex="1" parent="RWCcXeoH5vesJ5peBKe--1">
          <mxGeometry x="370" y="160" width="160" height="30" as="geometry" />
        </mxCell>
        <mxCell id="RWCcXeoH5vesJ5peBKe--36" value="POST" style="rounded=1;whiteSpace=wrap;html=1;fillColor=#dae8fc;strokeColor=#6c8ebf;" vertex="1" parent="RWCcXeoH5vesJ5peBKe--1">
          <mxGeometry x="540" y="140" width="40" height="20" as="geometry" />
        </mxCell>
        <mxCell id="RWCcXeoH5vesJ5peBKe--37" value="&lt;font style=&quot;font-size: 11px;&quot;&gt;/enableLocalisation&lt;/font&gt;" style="rounded=1;whiteSpace=wrap;html=1;" vertex="1" parent="RWCcXeoH5vesJ5peBKe--1">
          <mxGeometry x="580" y="140" width="120" height="20" as="geometry" />
        </mxCell>
        <mxCell id="RWCcXeoH5vesJ5peBKe--38" value="&lt;div style=&quot;line-height: 50%;&quot;&gt;&lt;p&gt;&lt;span style=&quot;font-size: 7px;&quot;&gt;Re-enables the localisation using the location marker on the EbuLa device. This invokes a jump to the current page on the EbuLa.&lt;/span&gt;&lt;/p&gt;&lt;/div&gt;" style="rounded=1;whiteSpace=wrap;html=1;" vertex="1" parent="RWCcXeoH5vesJ5peBKe--1">
          <mxGeometry x="540" y="160" width="160" height="30" as="geometry" />
        </mxCell>
        <mxCell id="RWCcXeoH5vesJ5peBKe--39" value="POST" style="rounded=1;whiteSpace=wrap;html=1;fillColor=#dae8fc;strokeColor=#6c8ebf;" vertex="1" parent="RWCcXeoH5vesJ5peBKe--1">
          <mxGeometry x="540" y="60" width="40" height="20" as="geometry" />
        </mxCell>
        <mxCell id="RWCcXeoH5vesJ5peBKe--40" value="&lt;font style=&quot;font-size: 11px;&quot;&gt;/rescan&lt;/font&gt;" style="rounded=1;whiteSpace=wrap;html=1;" vertex="1" parent="RWCcXeoH5vesJ5peBKe--1">
          <mxGeometry x="580" y="60" width="120" height="20" as="geometry" />
        </mxCell>
        <mxCell id="RWCcXeoH5vesJ5peBKe--41" value="&lt;div style=&quot;line-height: 50%;&quot;&gt;&lt;p&gt;&lt;span style=&quot;font-size: 7px;&quot;&gt;Rescans the entire timetable from the EbuLa device and returns it.&lt;/span&gt;&lt;/p&gt;&lt;/div&gt;" style="rounded=1;whiteSpace=wrap;html=1;" vertex="1" parent="RWCcXeoH5vesJ5peBKe--1">
          <mxGeometry x="540" y="80" width="160" height="30" as="geometry" />
        </mxCell>
        <mxCell id="RWCcXeoH5vesJ5peBKe--42" value="POST" style="rounded=1;whiteSpace=wrap;html=1;fillColor=#dae8fc;strokeColor=#6c8ebf;" vertex="1" parent="RWCcXeoH5vesJ5peBKe--1">
          <mxGeometry x="710" y="140" width="40" height="20" as="geometry" />
        </mxCell>
        <mxCell id="RWCcXeoH5vesJ5peBKe--43" value="&lt;font style=&quot;font-size: 11px;&quot;&gt;/turnOnAutoDetection&lt;/font&gt;" style="rounded=1;whiteSpace=wrap;html=1;" vertex="1" parent="RWCcXeoH5vesJ5peBKe--1">
          <mxGeometry x="750" y="140" width="120" height="20" as="geometry" />
        </mxCell>
        <mxCell id="RWCcXeoH5vesJ5peBKe--44" value="&lt;div style=&quot;line-height: 50%;&quot;&gt;&lt;p&gt;&lt;span style=&quot;font-size: 7px;&quot;&gt;Turns on the auto detection of a timetable on startup back on.&lt;/span&gt;&lt;/p&gt;&lt;/div&gt;" style="rounded=1;whiteSpace=wrap;html=1;" vertex="1" parent="RWCcXeoH5vesJ5peBKe--1">
          <mxGeometry x="710" y="160" width="160" height="30" as="geometry" />
        </mxCell>
        <mxCell id="RWCcXeoH5vesJ5peBKe--45" value="POST" style="rounded=1;whiteSpace=wrap;html=1;fillColor=#dae8fc;strokeColor=#6c8ebf;" vertex="1" parent="RWCcXeoH5vesJ5peBKe--1">
          <mxGeometry x="880" y="140" width="40" height="20" as="geometry" />
        </mxCell>
        <mxCell id="RWCcXeoH5vesJ5peBKe--46" value="&lt;font style=&quot;font-size: 11px;&quot;&gt;/turnOnLocalisation&lt;/font&gt;" style="rounded=1;whiteSpace=wrap;html=1;" vertex="1" parent="RWCcXeoH5vesJ5peBKe--1">
          <mxGeometry x="920" y="140" width="120" height="20" as="geometry" />
        </mxCell>
        <mxCell id="RWCcXeoH5vesJ5peBKe--47" value="&lt;div style=&quot;line-height: 50%;&quot;&gt;&lt;p&gt;&lt;span style=&quot;font-size: 7px;&quot;&gt;Turns on the localisation using the location marker on the Ebula. This invokes a jump to the current page on the EbuLa.&lt;/span&gt;&lt;/p&gt;&lt;/div&gt;" style="rounded=1;whiteSpace=wrap;html=1;" vertex="1" parent="RWCcXeoH5vesJ5peBKe--1">
          <mxGeometry x="880" y="160" width="160" height="30" as="geometry" />
        </mxCell>
        <mxCell id="RWCcXeoH5vesJ5peBKe--12" value="&lt;font style=&quot;font-size: 8px;&quot;&gt;METHOD&lt;/font&gt;" style="rounded=1;whiteSpace=wrap;html=1;fillColor=#d5e8d4;strokeColor=#82b366;" vertex="1" parent="1">
          <mxGeometry x="70" y="30" width="40" height="20" as="geometry" />
        </mxCell>
        <mxCell id="RWCcXeoH5vesJ5peBKe--13" value="ENDPOINT" style="rounded=1;whiteSpace=wrap;html=1;" vertex="1" parent="1">
          <mxGeometry x="110" y="30" width="120" height="20" as="geometry" />
        </mxCell>
        <mxCell id="RWCcXeoH5vesJ5peBKe--14" value="&lt;font style=&quot;font-size: 10px;&quot;&gt;DESCRIPTION&lt;/font&gt;" style="rounded=1;whiteSpace=wrap;html=1;" vertex="1" parent="1">
          <mxGeometry x="70" y="50" width="160" height="20" as="geometry" />
        </mxCell>
      </root>
    </mxGraphModel>
  </diagram>
</mxfile>
